<svg
  xmlns="http://www.w3.org/2000/svg"
  style="position:absolute;visibility:hidden;height:0;pointer-events:none;z-index:-1;"
>
  <symbol id="youtube" viewBox="0 0 504 353">
    <path fill="currentColor" d="M492.845 55.853c-5.799-21.558-22.796-38.552-44.35-44.357C409.115.722 251.6.722 251.6.722S94.09.722 54.713 11.088c-21.14 5.798-38.551 23.21-44.35 44.765C0 95.228 0 176.887 0 176.887s0 82.07 10.363 121.033c5.805 21.555 22.796 38.549 44.354 44.354 39.79 10.777 196.89 10.777 196.89 10.777s157.51 0 196.887-10.366c21.558-5.801 38.552-22.795 44.357-44.35 10.362-39.378 10.362-121.034 10.362-121.034s.412-82.073-10.368-121.448zM201.45 252.326V101.447l130.982 75.44-130.982 75.439z"></path>
  </symbol>

  <symbol id="instagram" viewBox="0 0 504 504">
    <path fill="currentColor" d="M251.921.159c-68.418 0-76.997.29-103.867 1.516-26.814 1.223-45.127 5.482-61.151 11.71-16.566 6.437-30.615 15.051-44.621 29.056-14.005 14.006-22.619 28.055-29.056 44.621-6.228 16.024-10.487 34.337-11.71 61.151C.29 175.083 0 183.662 0 252.08c0 68.417.29 76.996 1.516 103.866 1.223 26.814 5.482 45.127 11.71 61.151 6.437 16.566 15.051 30.615 29.056 44.621 14.006 14.005 28.055 22.619 44.621 29.057 16.024 6.227 34.337 10.486 61.151 11.709 26.87 1.226 35.449 1.516 103.867 1.516 68.417 0 76.996-.29 103.866-1.516 26.814-1.223 45.127-5.482 61.151-11.709 16.566-6.438 30.615-15.052 44.621-29.057 14.005-14.006 22.619-28.055 29.057-44.621 6.227-16.024 10.486-34.337 11.709-61.151 1.226-26.87 1.516-35.449 1.516-103.866 0-68.418-.29-76.997-1.516-103.867-1.223-26.814-5.482-45.127-11.709-61.151-6.438-16.566-15.052-30.615-29.057-44.621-14.006-14.005-28.055-22.619-44.621-29.056-16.024-6.228-34.337-10.487-61.151-11.71C328.917.449 320.338.159 251.921.159zm0 45.391c67.265 0 75.233.257 101.797 1.469 24.562 1.12 37.901 5.224 46.778 8.674 11.759 4.57 20.151 10.029 28.966 18.845 8.816 8.815 14.275 17.207 18.845 28.966 3.45 8.877 7.554 22.216 8.674 46.778 1.212 26.564 1.469 34.532 1.469 101.798 0 67.265-.257 75.233-1.469 101.797-1.12 24.562-5.224 37.901-8.674 46.778-4.57 11.759-10.029 20.151-18.845 28.966-8.815 8.816-17.207 14.275-28.966 18.845-8.877 3.45-22.216 7.554-46.778 8.674-26.56 1.212-34.527 1.469-101.797 1.469-67.271 0-75.237-.257-101.798-1.469-24.562-1.12-37.901-5.224-46.778-8.674-11.759-4.57-20.151-10.029-28.966-18.845-8.815-8.815-14.275-17.207-18.845-28.966-3.45-8.877-7.554-22.216-8.674-46.778-1.212-26.564-1.469-34.532-1.469-101.797 0-67.266.257-75.234 1.469-101.798 1.12-24.562 5.224-37.901 8.674-46.778 4.57-11.759 10.029-20.151 18.845-28.966 8.815-8.816 17.207-14.275 28.966-18.845 8.877-3.45 22.216-7.554 46.778-8.674 26.564-1.212 34.532-1.469 101.798-1.469z"></path>
    <path fill="currentColor" d="M251.921 336.053c-46.378 0-83.974-37.596-83.974-83.973 0-46.378 37.596-83.974 83.974-83.974 46.377 0 83.973 37.596 83.973 83.974 0 46.377-37.596 83.973-83.973 83.973zm0-213.338c-71.447 0-129.365 57.918-129.365 129.365 0 71.446 57.918 129.364 129.365 129.364 71.446 0 129.364-57.918 129.364-129.364 0-71.447-57.918-129.365-129.364-129.365zm164.706-5.111c0 16.696-13.535 30.23-30.231 30.23-16.695 0-30.23-13.534-30.23-30.23 0-16.696 13.535-30.231 30.23-30.231 16.696 0 30.231 13.535 30.231 30.231z"></path>
  </symbol>

  <symbol id="github" viewBox="0 0 16 16" aria-hidden="true">
    <path fill-rule="evenodd" fill="currentColor" d="M8 0C3.58 0 0 3.58 0 8c0 3.54 2.29 6.53 5.47 7.59.4.07.55-.17.55-.38 0-.19-.01-.82-.01-1.49-2.01.37-2.53-.49-2.69-.94-.09-.23-.48-.94-.82-1.13-.28-.15-.68-.52-.01-.53.63-.01 1.08.58 1.23.82.72 1.21 1.87.87 2.33.66.07-.52.28-.87.51-1.07-1.78-.2-3.64-.89-3.64-3.95 0-.87.31-1.59.82-2.15-.08-.2-.36-1.02.08-2.12 0 0 .67-.21 2.2.82.64-.18 1.32-.27 2-.27.68 0 1.36.09 2 .27 1.53-1.04 2.2-.82 2.2-.82.44 1.1.16 1.92.08 2.12.51.56.82 1.27.82 2.15 0 3.07-1.87 3.75-3.65 3.95.29.25.54.73.54 1.48 0 1.07-.01 1.93-.01 2.2 0 .21.15.46.55.38A8.013 8.013 0 0016 8c0-4.42-3.58-8-8-8z"></path>
  </symbol>

  <symbol id="vk" width="192" height="192" viewBox="0 0 192 192">
    <path d="m157.234 66.146c.89-2.966 0-5.146-4.234-5.146h-14c-3.559 0-5.201 1.883-6.091 3.959 0 0-7.119 17.354-17.205 28.626-3.263 3.263-4.746 4.301-6.526 4.301-.89 0-2.178-1.038-2.178-4.004v-27.736c0-3.56-1.033-5.146-4-5.146h-22c-2.224 0-3.562 1.652-3.562 3.218 0 3.375 5.042 4.153 5.562 13.645v20.617c0 4.52-.816 5.34-2.596 5.34-4.746 0-16.291-17.432-23.138-37.377-1.342-3.877-2.688-5.443-6.266-5.443h-14c-4 0-4.8 1.883-4.8 3.959 0 3.709 4.747 22.1 22.1 46.425 11.569 16.611 27.868 25.616 42.7 25.616 8.899 0 10-2 10-5.445v-12.555c0-4 .843-4.798 3.661-4.798 2.077 0 5.636 1.038 13.943 9.047 9.492 9.493 11.057 13.751 16.396 13.751h14c4 0 6-2 4.846-5.947-1.262-3.934-5.794-9.641-11.808-16.406-3.263-3.857-8.158-8.009-9.641-10.086-2.076-2.67-1.483-3.857 0-6.229 0 0 17.057-24.028 18.837-32.186z" fill="currentColor" />
  </symbol>

  <symbol id="visit" viewBox="0 0 483 483">
    <path d="M395.72,0c-48.204,0-87.281,39.078-87.281,87.281c0,2.036,0.164,4.03,0.309,6.029l-161.233,75.674   c-15.668-14.971-36.852-24.215-60.231-24.215c-48.204,0.001-87.282,39.079-87.282,87.282c0,48.204,39.078,87.281,87.281,87.281   c15.206,0,29.501-3.907,41.948-10.741l69.789,58.806c-3.056,8.896-4.789,18.396-4.789,28.322c0,48.204,39.078,87.281,87.281,87.281   c48.205,0,87.281-39.078,87.281-87.281s-39.077-87.281-87.281-87.281c-15.205,0-29.5,3.908-41.949,10.74l-69.788-58.805   c3.057-8.891,4.789-18.396,4.789-28.322c0-2.035-0.164-4.024-0.308-6.029l161.232-75.674c15.668,14.971,36.852,24.215,60.23,24.215   c48.203,0,87.281-39.078,87.281-87.281C482.999,39.079,443.923,0,395.72,0z" fill="currentColor" />
  </symbol>
</svg>